<svg width="1440" height="237" viewBox="0 0 1440 237" fill="none" xmlns="http://www.w3.org/2000/svg">
<path d="M1569 14.6738L1512.43 28.9828C1455.87 43.2918 1342.73 71.9099 1229.6 86.2189C1116.47 100.528 1003.33 100.528 890.2 76.6497C777.067 53.1293 663.933 4.83636 550.8 0.364798C437.667 -4.10677 324.533 33.4544 211.4 62.3407C98.2666 90.6904 -14.8667 110.365 -71.4333 119.577L-128 129.146V215H-71.4333C-14.8667 215 98.2666 215 211.4 215C324.533 215 437.667 215 550.8 215C663.933 215 777.067 215 890.2 215C1003.33 215 1116.47 215 1229.6 215C1342.73 215 1455.87 215 1512.43 215H1569V14.6738Z" fill="white"/>
<path d="M1569 21.6738L1512.43 35.9828C1455.87 50.2918 1342.73 78.9099 1229.6 93.2189C1116.47 107.528 1003.33 107.528 890.2 83.6497C777.067 60.1293 663.933 11.8364 550.8 7.3648C437.667 2.89323 324.533 40.4544 211.4 69.3407C98.2667 97.6904 -14.8667 117.365 -71.4334 126.577L-128 136.146V222H-71.4334C-14.8667 222 98.2667 222 211.4 222C324.533 222 437.667 222 550.8 222C663.933 222 777.067 222 890.2 222C1003.33 222 1116.47 222 1229.6 222C1342.73 222 1455.87 222 1512.43 222H1569V21.6738Z" fill="#FEF5AA"/>
<path d="M1569 36.6738L1512.43 50.9828C1455.87 65.2918 1342.73 93.9099 1229.6 108.219C1116.47 122.528 1003.33 122.528 890.2 98.6497C777.067 75.1293 663.933 26.8364 550.8 22.3648C437.667 17.8932 324.533 55.4544 211.4 84.3407C98.2667 112.69 -14.8667 132.365 -71.4334 141.577L-128 151.146V237H-71.4334C-14.8667 237 98.2667 237 211.4 237C324.533 237 437.667 237 550.8 237C663.933 237 777.067 237 890.2 237C1003.33 237 1116.47 237 1229.6 237C1342.73 237 1455.87 237 1512.43 237H1569V36.6738Z" fill="white"/>
</svg>
