<svg width="1440" height="288" viewBox="0 0 1440 288" fill="none" xmlns="http://www.w3.org/2000/svg">
<g clip-path="url(#clip0_261_16)">
<path d="M-82 86.4L-25.4333 100.8C31.1333 115.2 144.267 144 257.4 158.4C370.533 172.8 483.667 172.8 596.8 148.77C709.933 125.1 823.067 76.5 936.2 72C1049.33 67.5 1162.47 105.3 1275.6 134.37C1388.73 162.9 1501.87 182.7 1558.43 191.97L1615 201.6V288H1558.43C1501.87 288 1388.73 288 1275.6 288C1162.47 288 1049.33 288 936.2 288C823.067 288 709.933 288 596.8 288C483.667 288 370.533 288 257.4 288C144.267 288 31.1333 288 -25.4333 288H-82V86.4Z" fill="white"/>
</g>
<defs>
<clipPath id="clip0_261_16">
<rect width="1697" height="288" fill="white" transform="translate(-82)"/>
</clipPath>
</defs>
</svg>
