<svg width="1440" height="230" viewBox="0 0 1440 230" fill="none" xmlns="http://www.w3.org/2000/svg">
<path d="M1569 14.6738L1512.43 28.9828C1455.87 43.2918 1342.73 71.9099 1229.6 86.2189C1116.47 100.528 1003.33 100.528 890.2 76.6497C777.067 53.1293 663.933 4.83636 550.8 0.364798C437.667 -4.10677 324.533 33.4544 211.4 62.3407C98.2666 90.6904 -14.8667 110.365 -71.4333 119.577L-128 129.146V215H-71.4333C-14.8667 215 98.2666 215 211.4 215C324.533 215 437.667 215 550.8 215C663.933 215 777.067 215 890.2 215C1003.33 215 1116.47 215 1229.6 215C1342.73 215 1455.87 215 1512.43 215H1569V14.6738Z" fill="#FEF5AA"/>
<path d="M1569 29.6738L1512.43 43.9828C1455.87 58.2918 1342.73 86.9099 1229.6 101.219C1116.47 115.528 1003.33 115.528 890.2 91.6497C777.067 68.1293 663.933 19.8364 550.8 15.3648C437.667 10.8932 324.533 48.4544 211.4 77.3407C98.2666 105.69 -14.8667 125.365 -71.4333 134.577L-128 144.146V230H-71.4333C-14.8667 230 98.2666 230 211.4 230C324.533 230 437.667 230 550.8 230C663.933 230 777.067 230 890.2 230C1003.33 230 1116.47 230 1229.6 230C1342.73 230 1455.87 230 1512.43 230H1569V29.6738Z" fill="white"/>
</svg>
